STARTFONT 2.1
COMMENT Copyright (C) 1990-1991 EWT Consulting
COMMENT Portions Copyright (C) 1994-1995 Cronyx Ltd.
COMMENT Changes Copyright (C) 1996 by Andrey A. Chernov, Moscow, Russia.
COMMENT Modified by Serge Vakulenko, <vak@cronyx.ru>
COMMENT This software may be used, modified, copied, distributed, and sold,
COMMENT in both source and binary form provided that the copyright
COMMENT and these terms are retained. Under no circumstances is the author
COMMENT responsible for the proper functioning of this software, nor does
COMMENT the author assume any responsibility for damages incurred with its use.
COMMENT $XFree86: xc/fonts/bdf/cyrillic/crox5hbo.bdf,v 3.2 1996/09/01 12:18:37 dawes Exp $
FONT -Cronyx-Helvetica-Bold-O-Normal--25-180-100-100-P-98-KOI8-R
SIZE 18 96 96
FONTBOUNDINGBOX 34 29 -1 -6
STARTPROPERTIES 19
DEFAULT_CHAR 32
FONT_ASCENT 23
FONT_DESCENT 6
SPACING "P"
FONTNAME_REGISTRY ""
FOUNDRY "Cronyx"
FAMILY_NAME "Helvetica"
WEIGHT_NAME "Bold"
SLANT "O"
SETWIDTH_NAME "Normal"
ADD_STYLE_NAME ""
AVERAGE_WIDTH 98
CHARSET_REGISTRY "KOI8"
CHARSET_ENCODING "R"
PIXEL_SIZE 25
POINT_SIZE 180
RESOLUTION_X 100
RESOLUTION_Y 100
COPYRIGHT "Copyright (C) 1990, 1991 EWT Consulting, Portions Copyright (C) 1994 Cronyx Ltd., Portions Copyright (C) 1996 by Andrey A. Chernov, Moscow, Russia."
ENDPROPERTIES
CHARS 224
STARTCHAR space
ENCODING 32
SWIDTH 241 0
DWIDTH 7 0
BBX 16 29 -1 -6
BITMAP
0000
0000
0000
0000
0000
0000
0000
0000
0000
0000
0000
0000
0000
0000
0000
0000
0000
0000
0000
0000
0000
0000
0000
0000
0000
0000
0000
0000
0000
ENDCHAR
STARTCHAR exclam
ENCODING 33
SWIDTH 241 0
DWIDTH 7 0
BBX 16 29 -1 -6
BITMAP
0000
0000
0000
0000
0000
0000
0038
0038
0070
0070
0070
00E0
00E0
00E0
01C0
01C0
01C0
0380
0380
0000
0000
0700
0700
0000
0000
0000
0000
0000
0000
ENDCHAR
STARTCHAR quotedbl
ENCODING 34
SWIDTH 310 0
DWIDTH 9 0
BBX 18 29 -1 -6
BITMAP
000000
000000
000000
000000
000000
000000
007700
007700
00EE00
00EE00
00EE00
01DC00
000000
000000
000000
000000
000000
000000
000000
000000
000000
000000
000000
000000
000000
000000
000000
000000
000000
ENDCHAR
STARTCHAR numbersign
ENCODING 35
SWIDTH 482 0
DWIDTH 14 0
BBX 23 29 -1 -6
BITMAP
000000
000000
000000
000000
000000
000000
000770
000770
000EE0
001DC0
001DC0
00FFE0
00FFE0
003B80
00EE00
00EE00
03FF80
07FF00
01DC00
01DC00
077000
077000
077000
000000
000000
000000
000000
000000
000000
ENDCHAR
STARTCHAR dollar
ENCODING 36
SWIDTH 482 0
DWIDTH 14 0
BBX 23 29 -1 -6
BITMAP
000000
000000
000000
000000
000000
000300
000FC0
003FF0
0076F0
00E670
00E600
01CC00
00EC00
00FF00
007F80
001B80
0019C0
003380
003380
073380
0F6E00
07FE00
01F800
00C000
00C000
000000
000000
000000
000000
ENDCHAR
STARTCHAR percent
ENCODING 37
SWIDTH 793 0
DWIDTH 23 0
BBX 32 29 -1 -6
BITMAP
00000000
00000000
00000000
00000000
00000000
00000000
001F01C0
003F81C0
00F78700
00E38E00
00E38E00
01EF3800
00FE7000
007C7000
0001C000
00038F80
00039FC0
000E7BC0
001C71C0
001C71C0
0070F780
00E07F00
00E03E00
00000000
00000000
00000000
00000000
00000000
00000000
ENDCHAR
STARTCHAR ampersand
ENCODING 38
SWIDTH 586 0
DWIDTH 17 0
BBX 26 29 -1 -6
BITMAP
00000000
00000000
00000000
00000000
00000000
00000000
00078000
000FC000
0039C000
0039C000
0039C000
003F0000
003F0000
001E0000
00FE0000
01EE7000
01CF7000
070FE000
0707C000
0703C000
070F8000
07FFC000
01F9E000
00000000
00000000
00000000
00000000
00000000
00000000
ENDCHAR
STARTCHAR quoteright
ENCODING 39
SWIDTH 172 0
DWIDTH 5 0
BBX 14 29 -1 -6
BITMAP
0000
0000
0000
0000
0000
0000
0070
0070
00E0
00E0
00E0
01C0
0000
0000
0000
0000
0000
0000
0000
0000
0000
0000
0000
0000
0000
0000
0000
0000
0000
ENDCHAR
STARTCHAR parenleft
ENCODING 40
SWIDTH 310 0
DWIDTH 9 0
BBX 18 29 -1 -6
BITMAP
000000
000000
000000
000000
000000
000000
000700
000E00
001C00
003800
003800
007000
00E000
00E000
01C000
01C000
01C000
038000
038000
038000
070000
070000
038000
070000
070000
038000
070000
038000
000000
ENDCHAR
STARTCHAR parenright
ENCODING 41
SWIDTH 310 0
DWIDTH 9 0
BBX 18 29 -1 -6
BITMAP
000000
000000
000000
000000
000000
000000
007000
003800
007000
003800
003800
007000
003800
003800
007000
007000
007000
00E000
00E000
00E000
01C000
01C000
038000
070000
070000
0E0000
1C0000
380000
000000
ENDCHAR
STARTCHAR asterisk
ENCODING 42
SWIDTH 379 0
DWIDTH 11 0
BBX 20 29 -1 -6
BITMAP
000000
000000
000000
000000
000000
000000
000600
000600
007F80
003F00
001E00
007E00
006600
000000
000000
000000
000000
000000
000000
000000
000000
000000
000000
000000
000000
000000
000000
000000
000000
ENDCHAR
STARTCHAR plus
ENCODING 43
SWIDTH 517 0
DWIDTH 15 0
BBX 24 29 -1 -6
BITMAP
000000
000000
000000
000000
000000
000000
000000
000000
000000
000700
000700
000E00
000E00
00FFE0
01FFC0
001C00
001C00
003800
003800
000000
000000
000000
000000
000000
000000
000000
000000
000000
000000
ENDCHAR
STARTCHAR comma
ENCODING 44
SWIDTH 241 0
DWIDTH 7 0
BBX 16 29 -1 -6
BITMAP
0000
0000
0000
0000
0000
0000
0000
0000
0000
0000
0000
0000
0000
0000
0000
0000
0000
0000
0000
0000
0000
0700
0700
0600
0C00
0000
0000
0000
0000
ENDCHAR
STARTCHAR minus
ENCODING 45
SWIDTH 310 0
DWIDTH 9 0
BBX 18 29 -1 -6
BITMAP
000000
000000
000000
000000
000000
000000
000000
000000
000000
000000
000000
000000
000000
000000
000000
000000
03F800
07F000
000000
000000
000000
000000
000000
000000
000000
000000
000000
000000
000000
ENDCHAR
STARTCHAR period
ENCODING 46
SWIDTH 241 0
DWIDTH 7 0
BBX 16 29 -1 -6
BITMAP
0000
0000
0000
0000
0000
0000
0000
0000
0000
0000
0000
0000
0000
0000
0000
0000
0000
0000
0000
0000
0000
0700
0700
0000
0000
0000
0000
0000
0000
ENDCHAR
STARTCHAR slash
ENCODING 47
SWIDTH 275 0
DWIDTH 8 0
BBX 17 29 -1 -6
BITMAP
000000
000000
000000
000000
000000
000000
000700
000700
001C00
001C00
001C00
007000
007000
007000
01C000
01C000
01C000
070000
070000
070000
1C0000
1C0000
1C0000
000000
000000
000000
000000
000000
000000
ENDCHAR
STARTCHAR zero
ENCODING 48
SWIDTH 482 0
DWIDTH 14 0
BBX 23 29 -1 -6
BITMAP
000000
000000
000000
000000
000000
000000
000780
001FE0
0079E0
0070E0
00E070
01C0E0
01C0E0
01C0E0
0381C0
0381C0
0381C0
070380
070380
038700
079E00
03FC00
00F000
000000
000000
000000
000000
000000
000000
ENDCHAR
STARTCHAR one
ENCODING 49
SWIDTH 482 0
DWIDTH 14 0
BBX 23 29 -1 -6
BITMAP
000000
000000
000000
000000
000000
000000
000380
000780
007F00
007F00
000700
000E00
000E00
000E00
001C00
001C00
001C00
003800
003800
003800
007000
007000
007000
000000
000000
000000
000000
000000
000000
ENDCHAR
STARTCHAR two
ENCODING 50
SWIDTH 482 0
DWIDTH 14 0
BBX 23 29 -1 -6
BITMAP
000000
000000
000000
000000
000000
000000
000FC0
003FF0
0079E0
00F0F0
00E070
0000E0
0001E0
0003C0
001F80
003E00
007800
01E000
03C000
038000
0F0000
0FFF00
0FFF00
000000
000000
000000
000000
000000
000000
ENDCHAR
STARTCHAR three
ENCODING 51
SWIDTH 482 0
DWIDTH 14 0
BBX 23 29 -1 -6
BITMAP
000000
000000
000000
000000
000000
000000
000FC0
003FF0
0079E0
00F0F0
00E070
0001C0
0003C0
001F80
003F00
000780
0003C0
070380
070380
078780
079E00
07FE00
01F800
000000
000000
000000
000000
000000
000000
ENDCHAR
STARTCHAR four
ENCODING 52
SWIDTH 482 0
DWIDTH 14 0
BBX 23 29 -1 -6
BITMAP
000000
000000
000000
000000
000000
000000
0000F0
0001F0
0007E0
0007E0
000FE0
003DC0
0039C0
0079C0
01E380
01C380
03C380
07FF80
07FF80
000700
000E00
000E00
000E00
000000
000000
000000
000000
000000
000000
ENDCHAR
STARTCHAR five
ENCODING 53
SWIDTH 482 0
DWIDTH 14 0
BBX 23 29 -1 -6
BITMAP
000000
000000
000000
000000
000000
000000
001FF8
001FF8
003800
007000
007000
00E000
01FF00
01FFC0
038780
0003C0
0001C0
000380
000380
070780
0F1E00
07FE00
01F800
000000
000000
000000
000000
000000
000000
ENDCHAR
STARTCHAR six
ENCODING 54
SWIDTH 482 0
DWIDTH 14 0
BBX 23 29 -1 -6
BITMAP
000000
000000
000000
000000
000000
000000
0007C0
001FF0
0078E0
007070
00E000
01C000
01DF00
01FFC0
03E780
03C3C0
0381C0
070380
070380
078780
079E00
07FE00
01F800
000000
000000
000000
000000
000000
000000
ENDCHAR
STARTCHAR seven
ENCODING 55
SWIDTH 482 0
DWIDTH 14 0
BBX 23 29 -1 -6
BITMAP
000000
000000
000000
000000
000000
000000
007FF8
007FF8
0000E0
0001E0
0001C0
000780
000700
000F00
001C00
003C00
003800
007000
00F000
00E000
01C000
01C000
01C000
000000
000000
000000
000000
000000
000000
ENDCHAR
STARTCHAR eight
ENCODING 56
SWIDTH 482 0
DWIDTH 14 0
BBX 23 29 -1 -6
BITMAP
000000
000000
000000
000000
000000
000000
000780
001FE0
0039C0
0070E0
0070E0
00E1C0
007380
007F80
00FF00
01E780
03C3C0
070380
070380
078780
079E00
07FE00
01F800
000000
000000
000000
000000
000000
000000
ENDCHAR
STARTCHAR nine
ENCODING 57
SWIDTH 482 0
DWIDTH 14 0
BBX 23 29 -1 -6
BITMAP
000000
000000
000000
000000
000000
000000
000FC0
003FF0
0079E0
00F0F0
00E070
01C0E0
01C0E0
01E1E0
01E7C0
01FFC0
007FC0
000380
000380
070700
071E00
07FC00
01F000
000000
000000
000000
000000
000000
000000
ENDCHAR
STARTCHAR colon
ENCODING 58
SWIDTH 241 0
DWIDTH 7 0
BBX 16 29 -1 -6
BITMAP
0000
0000
0000
0000
0000
0000
0000
0000
0000
0000
0000
00E0
00E0
0000
0000
0000
0000
0000
0000
0000
0000
0700
0700
0000
0000
0000
0000
0000
0000
ENDCHAR
STARTCHAR semicolon
ENCODING 59
SWIDTH 241 0
DWIDTH 7 0
BBX 16 29 -1 -6
BITMAP
0000
0000
0000
0000
0000
0000
0000
0000
0000
0000
0000
00E0
00E0
0000
0000
0000
0000
0000
0000
0000
0000
0700
0700
0600
0C00
0000
0000
0000
0000
ENDCHAR
STARTCHAR less
ENCODING 60
SWIDTH 517 0
DWIDTH 15 0
BBX 24 29 -1 -6
BITMAP
000000
000000
000000
000000
000000
000000
000000
00000C
000078
0000F0
0003C0
000F00
003C00
007800
03C000
03C000
00F000
00F000
003C00
001E00
000F00
000780
000180
000000
000000
000000
000000
000000
000000
ENDCHAR
STARTCHAR equal
ENCODING 61
SWIDTH 517 0
DWIDTH 15 0
BBX 24 29 -1 -6
BITMAP
000000
000000
000000
000000
000000
000000
000000
000000
000000
000000
00FFF8
01FFF0
000000
000000
000000
000000
03FFE0
07FFC0
000000
000000
000000
000000
000000
000000
000000
000000
000000
000000
000000
ENDCHAR
STARTCHAR greater
ENCODING 62
SWIDTH 517 0
DWIDTH 15 0
BBX 24 29 -1 -6
BITMAP
000000
000000
000000
000000
000000
000000
000000
006000
00F000
007800
001E00
001E00
000780
0003C0
0001E0
0001E0
000780
001E00
007800
00F000
078000
0F0000
0C0000
000000
000000
000000
000000
000000
000000
ENDCHAR
STARTCHAR question
ENCODING 63
SWIDTH 448 0
DWIDTH 13 0
BBX 22 29 -1 -6
BITMAP
000000
000000
000000
000000
000000
000000
000F80
003FE0
0071C0
00E0E0
00E0E0
0003C0
000780
000F00
001C00
003800
003800
007000
000000
000000
000000
00E000
00E000
000000
000000
000000
000000
000000
000000
ENDCHAR
STARTCHAR at
ENCODING 64
SWIDTH 862 0
DWIDTH 25 0
BBX 34 29 -1 -6
BITMAP
0000000000
0000000000
0000000000
0000000000
0000000000
0000000000
00007F0000
0001FFC000
000F01E000
001C007000
0038003800
0060FC3000
00E3FFB800
00C78F9800
038E0E3800
039C0E3800
039C1C3800
0738386000
073870E000
031C71C000
073FF78000
030F3E0000
0380000000
0380000000
01E0700000
007FE00000
003F000000
0000000000
0000000000
ENDCHAR
STARTCHAR A
ENCODING 65
SWIDTH 551 0
DWIDTH 16 0
BBX 25 29 -1 -6
BITMAP
00000000
00000000
00000000
00000000
00000000
00000000
0003C000
0003C000
000FC000
000FC000
000FC000
003FC000
0039C000
0039C000
00F3C000
00E1C000
01E1E000
03FFC000
03FFC000
0781E000
0E01C000
1E01E000
1E01E000
00000000
00000000
00000000
00000000
00000000
00000000
ENDCHAR
STARTCHAR B
ENCODING 66
SWIDTH 586 0
DWIDTH 17 0
BBX 26 29 -1 -6
BITMAP
00000000
00000000
00000000
00000000
00000000
00000000
003FF000
003FFC00
00703800
00701C00
00701C00
00E03800
00E07800
00FFF000
01FFF000
01C07000
01C03800
03807000
03807000
03807000
0701C000
07FFC000
07FF0000
00000000
00000000
00000000
00000000
00000000
00000000
ENDCHAR
STARTCHAR C
ENCODING 67
SWIDTH 620 0
DWIDTH 18 0
BBX 27 29 -1 -6
BITMAP
00000000
00000000
00000000
00000000
00000000
00000000
0003FC00
000FFF00
003E1F00
00780700
00700380
01E00700
01C00000
01C00000
03800000
03800000
03800000
07801C00
03801C00
03C03800
03E1F000
01FFE000
007F8000
00000000
00000000
00000000
00000000
00000000
00000000
ENDCHAR
STARTCHAR D
ENCODING 68
SWIDTH 620 0
DWIDTH 18 0
BBX 27 29 -1 -6
BITMAP
00000000
00000000
00000000
00000000
00000000
00000000
003FF000
003FFC00
00707C00
00701E00
00700E00
00E01E00
00E00E00
00E00E00
01C01C00
01C01C00
01C01C00
03807800
03807000
0380F000
0707C000
07FF8000
07FE0000
00000000
00000000
00000000
00000000
00000000
00000000
ENDCHAR
STARTCHAR E
ENCODING 69
SWIDTH 586 0
DWIDTH 17 0
BBX 26 29 -1 -6
BITMAP
00000000
00000000
00000000
00000000
00000000
00000000
003FFF00
003FFF00
00700000
00700000
00700000
00E00000
00E00000
00FFF000
01FFE000
01C00000
01C00000
03800000
03800000
03800000
07000000
07FFE000
07FFE000
00000000
00000000
00000000
00000000
00000000
00000000
ENDCHAR
STARTCHAR F
ENCODING 70
SWIDTH 551 0
DWIDTH 16 0
BBX 25 29 -1 -6
BITMAP
00000000
00000000
00000000
00000000
00000000
00000000
003FFF00
003FFF00
00700000
00700000
00700000
00E00000
00E00000
00FFF000
01FFE000
01C00000
01C00000
03800000
03800000
03800000
07000000
07000000
07000000
00000000
00000000
00000000
00000000
00000000
00000000
ENDCHAR
STARTCHAR G
ENCODING 71
SWIDTH 655 0
DWIDTH 19 0
BBX 28 29 -1 -6
BITMAP
00000000
00000000
00000000
00000000
00000000
00000000
0003FC00
000FFF00
003E1F00
00780700
00700380
01E00700
01C00000
01C00000
03800000
0381FE00
0381FE00
07801C00
03801C00
03C03C00
03E1F800
01FFF800
007F9800
00000000
00000000
00000000
00000000
00000000
00000000
ENDCHAR
STARTCHAR H
ENCODING 72
SWIDTH 620 0
DWIDTH 18 0
BBX 27 29 -1 -6
BITMAP
00000000
00000000
00000000
00000000
00000000
00000000
00380700
00380700
00700E00
00700E00
00700E00
00E01C00
00E01C00
00FFFC00
01FFF800
01C03800
01C03800
03807000
03807000
03807000
0700E000
0700E000
0700E000
00000000
00000000
00000000
00000000
00000000
00000000
ENDCHAR
STARTCHAR I
ENCODING 73
SWIDTH 241 0
DWIDTH 7 0
BBX 16 29 -1 -6
BITMAP
0000
0000
0000
0000
0000
0000
0038
0038
0070
0070
0070
00E0
00E0
00E0
01C0
01C0
01C0
0380
0380
0380
0700
0700
0700
0000
0000
0000
0000
0000
0000
ENDCHAR
STARTCHAR J
ENCODING 74
SWIDTH 448 0
DWIDTH 13 0
BBX 22 29 -1 -6
BITMAP
000000
000000
000000
000000
000000
000000
0000E0
0000E0
0001C0
0001C0
0001C0
000380
000380
000380
000700
000700
000700
000E00
0E0E00
0E0E00
0E3800
0FF800
03E000
000000
000000
000000
000000
000000
000000
ENDCHAR
STARTCHAR K
ENCODING 75
SWIDTH 586 0
DWIDTH 17 0
BBX 26 29 -1 -6
BITMAP
00000000
00000000
00000000
00000000
00000000
00000000
00380F00
00381E00
00707800
0070F000
0071E000
00E78000
00EF0000
00FF8000
01FF0000
01F78000
01E3C000
03838000
0383C000
0381E000
0701C000
0701E000
0700F000
00000000
00000000
00000000
00000000
00000000
00000000
ENDCHAR
STARTCHAR L
ENCODING 76
SWIDTH 482 0
DWIDTH 14 0
BBX 23 29 -1 -6
BITMAP
000000
000000
000000
000000
000000
000000
003800
003800
007000
007000
007000
00E000
00E000
00E000
01C000
01C000
01C000
038000
038000
038000
070000
07FF80
07FF80
000000
000000
000000
000000
000000
000000
ENDCHAR
STARTCHAR M
ENCODING 77
SWIDTH 724 0
DWIDTH 21 0
BBX 30 29 -1 -6
BITMAP
00000000
00000000
00000000
00000000
00000000
00000000
003800E0
003800E0
007803C0
007803C0
007C07C0
00F80F80
00FC1F80
00FC1F80
01FC7F00
01DC7700
01DEF700
039DCE00
039FCE00
038F8E00
071F1C00
070E1C00
070E1C00
00000000
00000000
00000000
00000000
00000000
00000000
ENDCHAR
STARTCHAR N
ENCODING 78
SWIDTH 655 0
DWIDTH 19 0
BBX 28 29 -1 -6
BITMAP
00000000
00000000
00000000
00000000
00000000
00000000
00380380
003C0380
007C0700
007E0700
007E0700
00FE0E00
00EF0E00
00E78E00
01C71C00
01C79C00
01C3DC00
0383F800
0381F800
0381F800
0701F000
0700F000
07007000
00000000
00000000
00000000
00000000
00000000
00000000
ENDCHAR
STARTCHAR O
ENCODING 79
SWIDTH 689 0
DWIDTH 20 0
BBX 29 29 -1 -6
BITMAP
00000000
00000000
00000000
00000000
00000000
00000000
0003FC00
000FFF00
003E1F00
00780780
00700380
01E00780
01C00380
01C00380
03800700
03800700
03800700
07801E00
03801C00
03C03C00
03E1F000
01FFE000
007F8000
00000000
00000000
00000000
00000000
00000000
00000000
ENDCHAR
STARTCHAR P
ENCODING 80
SWIDTH 586 0
DWIDTH 17 0
BBX 26 29 -1 -6
BITMAP
00000000
00000000
00000000
00000000
00000000
00000000
003FFC00
003FFF00
00700E00
00700700
00700700
00E00E00
00E00E00
00E01C00
01FFF800
01FFE000
01C00000
03800000
03800000
03800000
07000000
07000000
07000000
00000000
00000000
00000000
00000000
00000000
00000000
ENDCHAR
STARTCHAR Q
ENCODING 81
SWIDTH 689 0
DWIDTH 20 0
BBX 29 29 -1 -6
BITMAP
00000000
00000000
00000000
00000000
00000000
00000000
0003FC00
000FFF00
003E1F00
00780780
00700380
01E00780
01C00380
01C00380
03800700
03800700
03800700
07819E00
0383DC00
03C1FC00
03E1F000
01FFF000
007FF800
00007800
00003000
00000000
00000000
00000000
00000000
ENDCHAR
STARTCHAR R
ENCODING 82
SWIDTH 620 0
DWIDTH 18 0
BBX 27 29 -1 -6
BITMAP
00000000
00000000
00000000
00000000
00000000
00000000
003FFC00
003FFF00
00700E00
00700700
00700700
00E00E00
00E00E00
00E01C00
01FFF800
01FFF000
01C07800
03807000
03803800
03803800
07007000
07007800
07003800
00000000
00000000
00000000
00000000
00000000
00000000
ENDCHAR
STARTCHAR S
ENCODING 83
SWIDTH 586 0
DWIDTH 17 0
BBX 26 29 -1 -6
BITMAP
00000000
00000000
00000000
00000000
00000000
00000000
0007F000
001FFC00
00383C00
00701C00
00700000
00E00000
00700000
007FE000
003FF000
00007000
00003800
00007000
07007000
07807000
07C1C000
03FFC000
00FF0000
00000000
00000000
00000000
00000000
00000000
00000000
ENDCHAR
STARTCHAR T
ENCODING 84
SWIDTH 586 0
DWIDTH 17 0
BBX 26 29 -1 -6
BITMAP
00000000
00000000
00000000
00000000
00000000
00000000
00FFFF80
00FFFF80
00038000
00038000
00038000
00070000
00070000
00070000
000E0000
000E0000
000E0000
001C0000
001C0000
001C0000
00380000
00380000
00380000
00000000
00000000
00000000
00000000
00000000
00000000
ENDCHAR
STARTCHAR U
ENCODING 85
SWIDTH 620 0
DWIDTH 18 0
BBX 27 29 -1 -6
BITMAP
00000000
00000000
00000000
00000000
00000000
00000000
00380700
00380700
00700E00
00700E00
00700E00
00E01C00
00E01C00
00E01C00
01C03800
01C03800
01C03800
03807000
03807000
01C0E000
03C3C000
01FF8000
007E0000
00000000
00000000
00000000
00000000
00000000
00000000
ENDCHAR
STARTCHAR V
ENCODING 86
SWIDTH 551 0
DWIDTH 16 0
BBX 25 29 -1 -6
BITMAP
00000000
00000000
00000000
00000000
00000000
00000000
00F00F00
00F00F00
00E01C00
00F03C00
00703800
00E07000
00F0F000
0070E000
00F3C000
00738000
00738000
00FF0000
007E0000
007E0000
00FC0000
00780000
00780000
00000000
00000000
00000000
00000000
00000000
00000000
ENDCHAR
STARTCHAR W
ENCODING 87
SWIDTH 793 0
DWIDTH 23 0
BBX 32 29 -1 -6
BITMAP
00000000
00000000
00000000
00000000
00000000
00000000
00E0380E
00E0380E
01E0703C
00E0F838
00E0F838
01E3F8F0
00E3B8E0
00E3B8E0
01EF7BC0
00EE3B80
00EE3B80
01FC7F00
00F83E00
00F83E00
00E03800
00E03800
00E03800
00000000
00000000
00000000
00000000
00000000
00000000
ENDCHAR
STARTCHAR X
ENCODING 88
SWIDTH 620 0
DWIDTH 18 0
BBX 27 29 -1 -6
BITMAP
00000000
00000000
00000000
00000000
00000000
00000000
00E001C0
00F003C0
00F00F00
00781E00
003C3C00
003CF000
001FE000
000FC000
000F0000
001F8000
003FC000
00F3C000
01E1E000
03C0F000
0F00F000
1E007800
1C003800
00000000
00000000
00000000
00000000
00000000
00000000
ENDCHAR
STARTCHAR Y
ENCODING 89
SWIDTH 586 0
DWIDTH 17 0
BBX 26 29 -1 -6
BITMAP
00000000
00000000
00000000
00000000
00000000
00000000
00E00380
00F00780
00F01E00
00783C00
003C7800
003DE000
001FC000
000F8000
000E0000
000E0000
000E0000
001C0000
001C0000
001C0000
00380000
00380000
00380000
00000000
00000000
00000000
00000000
00000000
00000000
ENDCHAR
STARTCHAR Z
ENCODING 90
SWIDTH 517 0
DWIDTH 15 0
BBX 24 29 -1 -6
BITMAP
000000
000000
000000
000000
000000
000000
007FFC
007FFC
0000F0
0000E0
0001E0
000780
000700
000F00
003C00
007800
007000
01E000
03C000
038000
0F0000
1FFFC0
1FFFC0
000000
000000
000000
000000
000000
000000
ENDCHAR
STARTCHAR bracketleft
ENCODING 91
SWIDTH 275 0
DWIDTH 8 0
BBX 17 29 -1 -6
BITMAP
000000
000000
000000
000000
000000
000000
003E00
003E00
007000
007000
007000
00E000
00E000
00E000
01C000
01C000
01C000
038000
038000
038000
070000
070000
070000
0E0000
0E0000
0E0000
1F0000
1F0000
000000
ENDCHAR
STARTCHAR backslash
ENCODING 92
SWIDTH 275 0
DWIDTH 8 0
BBX 17 29 -1 -6
BITMAP
000000
000000
000000
000000
000000
000000
00E000
00E000
00E000
00E000
00E000
00E000
00E000
00E000
00E000
00E000
00E000
00E000
00E000
00E000
00E000
00E000
00E000
000000
000000
000000
000000
000000
000000
ENDCHAR
STARTCHAR bracketright
ENCODING 93
SWIDTH 275 0
DWIDTH 8 0
BBX 17 29 -1 -6
BITMAP
000000
000000
000000
000000
000000
000000
007C00
007C00
003800
003800
003800
007000
007000
007000
00E000
00E000
00E000
01C000
01C000
01C000
038000
038000
038000
070000
070000
070000
3E0000
3E0000
000000
ENDCHAR
STARTCHAR asciicircum
ENCODING 94
SWIDTH 413 0
DWIDTH 12 0
BBX 21 29 -1 -6
BITMAP
000000
000000
000000
000000
000000
000000
000F00
001F80
007F80
00E1C0
000000
000000
000000
000000
000000
000000
000000
000000
000000
000000
000000
000000
000000
000000
000000
000000
000000
000000
000000
ENDCHAR
STARTCHAR underscore
ENCODING 95
SWIDTH 482 0
DWIDTH 14 0
BBX 23 29 -1 -6
BITMAP
000000
000000
000000
000000
000000
000000
000000
000000
000000
000000
000000
000000
000000
000000
000000
000000
000000
000000
000000
000000
000000
000000
000000
000000
3FFF00
3FFF00
000000
000000
000000
ENDCHAR
STARTCHAR quoteleft
ENCODING 96
SWIDTH 310 0
DWIDTH 9 0
BBX 18 29 -1 -6
BITMAP
000000
000000
000000
000000
000000
000000
007800
003C00
001C00
000600
000000
000000
000000
000000
000000
000000
000000
000000
000000
000000
000000
000000
000000
000000
000000
000000
000000
000000
000000
ENDCHAR
STARTCHAR a
ENCODING 97
SWIDTH 482 0
DWIDTH 14 0
BBX 23 29 -1 -6
BITMAP
000000
000000
000000
000000
000000
000000
000000
000000
000000
000000
000000
003E00
00FF80
00E380
000380
000780
007F80
03FF00
078700
070700
0F1E00
07FF80
03F780
000000
000000
000000
000000
000000
000000
ENDCHAR
STARTCHAR b
ENCODING 98
SWIDTH 517 0
DWIDTH 15 0
BBX 24 29 -1 -6
BITMAP
000000
000000
000000
000000
000000
000000
003800
003800
007000
007000
007000
00FF80
00FFE0
00F1E0
01C1E0
01C0E0
01C0E0
0381C0
0381C0
0383C0
078F00
07FF00
07FC00
000000
000000
000000
000000
000000
000000
ENDCHAR
STARTCHAR c
ENCODING 99
SWIDTH 448 0
DWIDTH 13 0
BBX 22 29 -1 -6
BITMAP
000000
000000
000000
000000
000000
000000
000000
000000
000000
000000
000000
001F00
007FC0
00F1E0
01C1C0
038000
038000
070000
070000
038380
078F00
03FE00
00F800
000000
000000
000000
000000
000000
000000
ENDCHAR
STARTCHAR d
ENCODING 100
SWIDTH 517 0
DWIDTH 15 0
BBX 24 29 -1 -6
BITMAP
000000
000000
000000
000000
000000
000000
000038
000038
000070
000070
000070
003FE0
00FFE0
00F1E0
03C1C0
0381C0
0381C0
070380
070380
078380
078F00
07FF00
01FF00
000000
000000
000000
000000
000000
000000
ENDCHAR
STARTCHAR e
ENCODING 101
SWIDTH 517 0
DWIDTH 15 0
BBX 24 29 -1 -6
BITMAP
000000
000000
000000
000000
000000
000000
000000
000000
000000
000000
000000
001F00
007FC0
00F1E0
01C1C0
0380E0
03FFE0
07FFC0
070000
038000
078780
03FF00
00FC00
000000
000000
000000
000000
000000
000000
ENDCHAR
STARTCHAR f
ENCODING 102
SWIDTH 241 0
DWIDTH 7 0
BBX 16 29 -1 -6
BITMAP
0000
0000
0000
0000
0000
0000
001E
003E
0070
0070
0070
03F8
03F8
00E0
01C0
01C0
01C0
0380
0380
0380
0700
0700
0700
0000
0000
0000
0000
0000
0000
ENDCHAR
STARTCHAR g
ENCODING 103
SWIDTH 517 0
DWIDTH 15 0
BBX 24 29 -1 -6
BITMAP
000000
000000
000000
000000
000000
000000
000000
000000
000000
000000
000000
003FE0
00FFE0
00F1E0
03C1C0
0381C0
0381C0
070380
070380
078380
078F00
07FF00
01FF00
000E00
000E00
0E1C00
1FF800
07E000
000000
ENDCHAR
STARTCHAR h
ENCODING 104
SWIDTH 482 0
DWIDTH 14 0
BBX 23 29 -1 -6
BITMAP
000000
000000
000000
000000
000000
000000
003800
003800
007000
007000
007000
00FE00
00FF80
00F380
01C380
01C380
01C380
038700
038700
038700
070E00
070E00
070E00
000000
000000
000000
000000
000000
000000
ENDCHAR
STARTCHAR i
ENCODING 105
SWIDTH 241 0
DWIDTH 7 0
BBX 16 29 -1 -6
BITMAP
0000
0000
0000
0000
0000
0000
0038
0038
0000
0000
0000
00E0
00E0
00E0
01C0
01C0
01C0
0380
0380
0380
0700
0700
0700
0000
0000
0000
0000
0000
0000
ENDCHAR
STARTCHAR j
ENCODING 106
SWIDTH 241 0
DWIDTH 7 0
BBX 16 29 -1 -6
BITMAP
0000
0000
0000
0000
0000
0000
0038
0038
0000
0000
0000
00E0
00E0
00E0
01C0
01C0
01C0
0380
0380
0380
0700
0700
0700
0E00
0E00
0E00
7C00
7800
0000
ENDCHAR
STARTCHAR k
ENCODING 107
SWIDTH 448 0
DWIDTH 13 0
BBX 22 29 -1 -6
BITMAP
000000
000000
000000
000000
000000
000000
003800
003800
007000
007000
007000
00E3C0
00E780
00EF00
01FC00
01F800
01FC00
03FC00
039C00
039E00
071E00
070E00
070F00
000000
000000
000000
000000
000000
000000
ENDCHAR
STARTCHAR l
ENCODING 108
SWIDTH 241 0
DWIDTH 7 0
BBX 16 29 -1 -6
BITMAP
0000
0000
0000
0000
0000
0000
0038
0038
0070
0070
0070
00E0
00E0
00E0
01C0
01C0
01C0
0380
0380
0380
0700
0700
0700
0000
0000
0000
0000
0000
0000
ENDCHAR
STARTCHAR m
ENCODING 109
SWIDTH 724 0
DWIDTH 21 0
BBX 30 29 -1 -6
BITMAP
00000000
00000000
00000000
00000000
00000000
00000000
00000000
00000000
00000000
00000000
00000000
00FF3E00
00FFFF00
00F3E700
01C38700
01C38700
01C38700
03870E00
03870E00
03870E00
070E1C00
070E1C00
070E1C00
00000000
00000000
00000000
00000000
00000000
00000000
ENDCHAR
STARTCHAR n
ENCODING 110
SWIDTH 482 0
DWIDTH 14 0
BBX 23 29 -1 -6
BITMAP
000000
000000
000000
000000
000000
000000
000000
000000
000000
000000
000000
00FE00
00FF80
00F380
01C380
01C380
01C380
038700
038700
038700
070E00
070E00
070E00
000000
000000
000000
000000
000000
000000
ENDCHAR
STARTCHAR o
ENCODING 111
SWIDTH 517 0
DWIDTH 15 0
BBX 24 29 -1 -6
BITMAP
000000
000000
000000
000000
000000
000000
000000
000000
000000
000000
000000
003F80
00FFE0
00F1E0
03C1E0
0380E0
0380E0
0701C0
0701C0
0783C0
078F00
07FF00
01FC00
000000
000000
000000
000000
000000
000000
ENDCHAR
STARTCHAR p
ENCODING 112
SWIDTH 517 0
DWIDTH 15 0
BBX 24 29 -1 -6
BITMAP
000000
000000
000000
000000
000000
000000
000000
000000
000000
000000
000000
00FF80
00FFE0
00F1E0
01C1E0
01C0E0
01C0E0
0381C0
0381C0
0383C0
078F00
07FF00
07FC00
0E0000
0E0000
0E0000
1C0000
1C0000
000000
ENDCHAR
STARTCHAR q
ENCODING 113
SWIDTH 517 0
DWIDTH 15 0
BBX 24 29 -1 -6
BITMAP
000000
000000
000000
000000
000000
000000
000000
000000
000000
000000
000000
003FE0
00FFE0
00F1E0
03C1C0
0381C0
0381C0
070380
070380
078380
078F00
07FF00
01FF00
000E00
000E00
000E00
001C00
001C00
000000
ENDCHAR
STARTCHAR r
ENCODING 114
SWIDTH 310 0
DWIDTH 9 0
BBX 18 29 -1 -6
BITMAP
000000
000000
000000
000000
000000
000000
000000
000000
000000
000000
000000
00EE00
00FE00
00F800
01E000
01C000
01C000
038000
038000
038000
070000
070000
070000
000000
000000
000000
000000
000000
000000
ENDCHAR
STARTCHAR s
ENCODING 115
SWIDTH 448 0
DWIDTH 13 0
BBX 22 29 -1 -6
BITMAP
000000
000000
000000
000000
000000
000000
000000
000000
000000
000000
000000
007E00
00FF80
01E380
038000
03E000
01FE00
00FE00
001F00
000700
0E1E00
0FFC00
03F800
000000
000000
000000
000000
000000
000000
ENDCHAR
STARTCHAR t
ENCODING 116
SWIDTH 241 0
DWIDTH 7 0
BBX 16 29 -1 -6
BITMAP
0000
0000
0000
0000
0000
0000
0000
0000
0070
0070
0070
03F8
03F8
00E0
01C0
01C0
01C0
0380
0380
0380
0700
07C0
03C0
0000
0000
0000
0000
0000
0000
ENDCHAR
STARTCHAR u
ENCODING 117
SWIDTH 482 0
DWIDTH 14 0
BBX 23 29 -1 -6
BITMAP
000000
000000
000000
000000
000000
000000
000000
000000
000000
000000
000000
00E1C0
00E1C0
00E1C0
01C380
01C380
01C380
038700
038700
038700
039E00
03FE00
00FE00
000000
000000
000000
000000
000000
000000
ENDCHAR
STARTCHAR v
ENCODING 118
SWIDTH 413 0
DWIDTH 12 0
BBX 21 29 -1 -6
BITMAP
000000
000000
000000
000000
000000
000000
000000
000000
000000
000000
000000
0381C0
0381C0
03C3C0
038700
03CF00
01CE00
039C00
03FC00
01F800
03F000
01E000
01E000
000000
000000
000000
000000
000000
000000
ENDCHAR
STARTCHAR w
ENCODING 119
SWIDTH 655 0
DWIDTH 19 0
BBX 28 29 -1 -6
BITMAP
00000000
00000000
00000000
00000000
00000000
00000000
00000000
00000000
00000000
00000000
00000000
03838380
03838380
03C7C780
038F8E00
03DFDE00
01DDDC00
03BBB800
03FBF800
01F1F000
03E3E000
01C1C000
01C1C000
00000000
00000000
00000000
00000000
00000000
00000000
ENDCHAR
STARTCHAR x
ENCODING 120
SWIDTH 413 0
DWIDTH 12 0
BBX 21 29 -1 -6
BITMAP
000000
000000
000000
000000
000000
000000
000000
000000
000000
000000
000000
0381C0
03C3C0
01E780
01FE00
00FC00
007800
00F000
01F800
03FC00
0F3C00
1E1E00
1C0E00
000000
000000
000000
000000
000000
000000
ENDCHAR
STARTCHAR y
ENCODING 121
SWIDTH 413 0
DWIDTH 12 0
BBX 21 29 -1 -6
BITMAP
000000
000000
000000
000000
000000
000000
000000
000000
000000
000000
000000
0381C0
0381C0
03C3C0
038700
03CF00
01CE00
039C00
03FC00
01F800
03F000
01E000
01E000
038000
078000
070000
7E0000
7C0000
000000
ENDCHAR
STARTCHAR z
ENCODING 122
SWIDTH 413 0
DWIDTH 12 0
BBX 21 29 -1 -6
BITMAP
000000
000000
000000
000000
000000
000000
000000
000000
000000
000000
000000
01FFC0
01FFC0
000780
001E00
003C00
007800
00F000
01E000
03C000
0F0000
1FFE00
1FFE00
000000
000000
000000
000000
000000
000000
ENDCHAR
STARTCHAR braceleft
ENCODING 123
SWIDTH 344 0
DWIDTH 10 0
BBX 19 29 -1 -6
BITMAP
000000
000000
000000
000000
000000
000000
000700
000F00
003C00
003800
003800
007000
007000
007000
00E000
01C000
038000
070000
038000
01C000
038000
038000
038000
070000
070000
078000
078000
038000
000000
ENDCHAR
STARTCHAR bar
ENCODING 124
SWIDTH 241 0
DWIDTH 7 0
BBX 16 29 -1 -6
BITMAP
0000
0000
0000
0000
0000
0000
0038
0038
0070
0070
0070
00E0
00E0
00E0
01C0
01C0
0000
0000
0000
0380
0700
0700
0700
0E00
0E00
0E00
1C00
1C00
1C00
ENDCHAR
STARTCHAR braceright
ENCODING 125
SWIDTH 344 0
DWIDTH 10 0
BBX 19 29 -1 -6
BITMAP
000000
000000
000000
000000
000000
000000
007000
007800
007000
003800
003800
007000
007000
007000
00E000
007000
003800
007000
00E000
01C000
038000
038000
038000
070000
070000
0E0000
3C0000
380000
000000
ENDCHAR
STARTCHAR asciitilde
ENCODING 126
SWIDTH 517 0
DWIDTH 15 0
BBX 24 29 -1 -6
BITMAP
000000
000000
000000
000000
000000
000000
003E38
007FB8
00EFF0
00E3E0
000000
000000
000000
000000
000000
000000
000000
000000
000000
000000
000000
000000
000000
000000
000000
000000
000000
000000
000000
ENDCHAR
STARTCHAR C177
ENCODING -1
SWIDTH 310 0
DWIDTH 9 0
BBX 18 29 -1 -6
BITMAP
000000
000000
000000
000000
000000
000000
003E00
003E00
007C00
007C00
007C00
00F800
00F800
00F800
01F000
01F000
01F000
03E000
03E000
03E000
07C000
07C000
07C000
000000
000000
000000
000000
000000
000000
ENDCHAR
STARTCHAR C200
ENCODING -1
SWIDTH 310 0
DWIDTH 9 0
BBX 18 29 -1 -6
BITMAP
000000
000000
000000
000000
000000
000000
003E00
003E00
007C00
007C00
007C00
00F800
00F800
00F800
01F000
01F000
01F000
03E000
03E000
03E000
07C000
07C000
07C000
000000
000000
000000
000000
000000
000000
ENDCHAR
STARTCHAR C201
ENCODING -1
SWIDTH 310 0
DWIDTH 9 0
BBX 18 29 -1 -6
BITMAP
000000
000000
000000
000000
000000
000000
003E00
003E00
007C00
007C00
007C00
00F800
00F800
00F800
01F000
01F000
01F000
03E000
03E000
03E000
07C000
07C000
07C000
000000
000000
000000
000000
000000
000000
ENDCHAR
STARTCHAR C202
ENCODING -1
SWIDTH 310 0
DWIDTH 9 0
BBX 18 29 -1 -6
BITMAP
000000
000000
000000
000000
000000
000000
003E00
003E00
007C00
007C00
007C00
00F800
00F800
00F800
01F000
01F000
01F000
03E000
03E000
03E000
07C000
07C000
07C000
000000
000000
000000
000000
000000
000000
ENDCHAR
STARTCHAR C203
ENCODING -1
SWIDTH 310 0
DWIDTH 9 0
BBX 18 29 -1 -6
BITMAP
000000
000000
000000
000000
000000
000000
003E00
003E00
007C00
007C00
007C00
00F800
00F800
00F800
01F000
01F000
01F000
03E000
03E000
03E000
07C000
07C000
07C000
000000
000000
000000
000000
000000
000000
ENDCHAR
STARTCHAR C204
ENCODING -1
SWIDTH 310 0
DWIDTH 9 0
BBX 18 29 -1 -6
BITMAP
000000
000000
000000
000000
000000
000000
003E00
003E00
007C00
007C00
007C00
00F800
00F800
00F800
01F000
01F000
01F000
03E000
03E000
03E000
07C000
07C000
07C000
000000
000000
000000
000000
000000
000000
ENDCHAR
STARTCHAR C205
ENCODING -1
SWIDTH 310 0
DWIDTH 9 0
BBX 18 29 -1 -6
BITMAP
000000
000000
000000
000000
000000
000000
003E00
003E00
007C00
007C00
007C00
00F800
00F800
00F800
01F000
01F000
01F000
03E000
03E000
03E000
07C000
07C000
07C000
000000
000000
000000
000000
000000
000000
ENDCHAR
STARTCHAR C206
ENCODING -1
SWIDTH 310 0
DWIDTH 9 0
BBX 18 29 -1 -6
BITMAP
000000
000000
000000
000000
000000
000000
003E00
003E00
007C00
007C00
007C00
00F800
00F800
00F800
01F000
01F000
01F000
03E000
03E000
03E000
07C000
07C000
07C000
000000
000000
000000
000000
000000
000000
ENDCHAR
STARTCHAR C207
ENCODING -1
SWIDTH 310 0
DWIDTH 9 0
BBX 18 29 -1 -6
BITMAP
000000
000000
000000
000000
000000
000000
003E00
003E00
007C00
007C00
007C00
00F800
00F800
00F800
01F000
01F000
01F000
03E000
03E000
03E000
07C000
07C000
07C000
000000
000000
000000
000000
000000
000000
ENDCHAR
STARTCHAR C210
ENCODING -1
SWIDTH 310 0
DWIDTH 9 0
BBX 18 29 -1 -6
BITMAP
000000
000000
000000
000000
000000
000000
003E00
003E00
007C00
007C00
007C00
00F800
00F800
00F800
01F000
01F000
01F000
03E000
03E000
03E000
07C000
07C000
07C000
000000
000000
000000
000000
000000
000000
ENDCHAR
STARTCHAR C211
ENCODING -1
SWIDTH 310 0
DWIDTH 9 0
BBX 18 29 -1 -6
BITMAP
000000
000000
000000
000000
000000
000000
003E00
003E00
007C00
007C00
007C00
00F800
00F800
00F800
01F000
01F000
01F000
03E000
03E000
03E000
07C000
07C000
07C000
000000
000000
000000
000000
000000
000000
ENDCHAR
STARTCHAR C212
ENCODING -1
SWIDTH 310 0
DWIDTH 9 0
BBX 18 29 -1 -6
BITMAP
000000
000000
000000
000000
000000
000000
003E00
003E00
007C00
007C00
007C00
00F800
00F800
00F800
01F000
01F000
01F000
03E000
03E000
03E000
07C000
07C000
07C000
000000
000000
000000
000000
000000
000000
ENDCHAR
STARTCHAR C213
ENCODING -1
SWIDTH 310 0
DWIDTH 9 0
BBX 18 29 -1 -6
BITMAP
000000
000000
000000
000000
000000
000000
003E00
003E00
007C00
007C00
007C00
00F800
00F800
00F800
01F000
01F000
01F000
03E000
03E000
03E000
07C000
07C000
07C000
000000
000000
000000
000000
000000
000000
ENDCHAR
STARTCHAR C214
ENCODING -1
SWIDTH 310 0
DWIDTH 9 0
BBX 18 29 -1 -6
BITMAP
000000
000000
000000
000000
000000
000000
003E00
003E00
007C00
007C00
007C00
00F800
00F800
00F800
01F000
01F000
01F000
03E000
03E000
03E000
07C000
07C000
07C000
000000
000000
000000
000000
000000
000000
ENDCHAR
STARTCHAR C215
ENCODING -1
SWIDTH 310 0
DWIDTH 9 0
BBX 18 29 -1 -6
BITMAP
000000
000000
000000
000000
000000
000000
003E00
003E00
007C00
007C00
007C00
00F800
00F800
00F800
01F000
01F000
01F000
03E000
03E000
03E000
07C000
07C000
07C000
000000
000000
000000
000000
000000
000000
ENDCHAR
STARTCHAR C216
ENCODING -1
SWIDTH 310 0
DWIDTH 9 0
BBX 18 29 -1 -6
BITMAP
000000
000000
000000
000000
000000
000000
003E00
003E00
007C00
007C00
007C00
00F800
00F800
00F800
01F000
01F000
01F000
03E000
03E000
03E000
07C000
07C000
07C000
000000
000000
000000
000000
000000
000000
ENDCHAR
STARTCHAR C217
ENCODING -1
SWIDTH 310 0
DWIDTH 9 0
BBX 18 29 -1 -6
BITMAP
000000
000000
000000
000000
000000
000000
003E00
003E00
007C00
007C00
007C00
00F800
00F800
00F800
01F000
01F000
01F000
03E000
03E000
03E000
07C000
07C000
07C000
000000
000000
000000
000000
000000
000000
ENDCHAR
STARTCHAR C220
ENCODING -1
SWIDTH 310 0
DWIDTH 9 0
BBX 18 29 -1 -6
BITMAP
000000
000000
000000
000000
000000
000000
003E00
003E00
007C00
007C00
007C00
00F800
00F800
00F800
01F000
01F000
01F000
03E000
03E000
03E000
07C000
07C000
07C000
000000
000000
000000
000000
000000
000000
ENDCHAR
STARTCHAR C221
ENCODING -1
SWIDTH 241 0
DWIDTH 7 0
BBX 16 29 -1 -6
BITMAP
0000
0000
0000
0000
0000
0000
0030
0060
00E0
00E0
0000
0000
0000
0000
0000
0000
0000
0000
0000
0000
0000
0000
0000
0000
0000
0000
0000
0000
0000
ENDCHAR
STARTCHAR C222
ENCODING -1
SWIDTH 241 0
DWIDTH 7 0
BBX 16 29 -1 -6
BITMAP
0000
0000
0000
0000
0000
0000
001C
001C
0018
0030
0000
0000
0000
0000
0000
0000
0000
0000
0000
0000
0000
0000
0000
0000
0000
0000
0000
0000
0000
ENDCHAR
STARTCHAR C223
ENCODING -1
SWIDTH 310 0
DWIDTH 9 0
BBX 18 29 -1 -6
BITMAP
000000
000000
000000
000000
000000
000000
003E00
003E00
007C00
007C00
007C00
00F800
00F800
00F800
01F000
01F000
01F000
03E000
03E000
03E000
07C000
07C000
07C000
000000
000000
000000
000000
000000
000000
ENDCHAR
STARTCHAR C224
ENCODING -1
SWIDTH 310 0
DWIDTH 9 0
BBX 18 29 -1 -6
BITMAP
000000
000000
000000
000000
000000
000000
003E00
003E00
007C00
007C00
007C00
00F800
00F800
00F800
01F000
01F000
01F000
03E000
03E000
03E000
07C000
07C000
07C000
000000
000000
000000
000000
000000
000000
ENDCHAR
STARTCHAR C225
ENCODING -1
SWIDTH 310 0
DWIDTH 9 0
BBX 18 29 -1 -6
BITMAP
000000
000000
000000
000000
000000
000000
003E00
003E00
007C00
007C00
007C00
00F800
00F800
00F800
01F000
01F000
01F000
03E000
03E000
03E000
07C000
07C000
07C000
000000
000000
000000
000000
000000
000000
ENDCHAR
STARTCHAR C226
ENCODING -1
SWIDTH 310 0
DWIDTH 9 0
BBX 18 29 -1 -6
BITMAP
000000
000000
000000
000000
000000
000000
003E00
003E00
007C00
007C00
007C00
00F800
00F800
00F800
01F000
01F000
01F000
03E000
03E000
03E000
07C000
07C000
07C000
000000
000000
000000
000000
000000
000000
ENDCHAR
STARTCHAR C227
ENCODING -1
SWIDTH 310 0
DWIDTH 9 0
BBX 18 29 -1 -6
BITMAP
000000
000000
000000
000000
000000
000000
003E00
003E00
007C00
007C00
007C00
00F800
00F800
00F800
01F000
01F000
01F000
03E000
03E000
03E000
07C000
07C000
07C000
000000
000000
000000
000000
000000
000000
ENDCHAR
STARTCHAR C230
ENCODING -1
SWIDTH 310 0
DWIDTH 9 0
BBX 18 29 -1 -6
BITMAP
000000
000000
000000
000000
000000
000000
003E00
003E00
007C00
007C00
007C00
00F800
00F800
00F800
01F000
01F000
01F000
03E000
03E000
03E000
07C000
07C000
07C000
000000
000000
000000
000000
000000
000000
ENDCHAR
STARTCHAR C231
ENCODING -1
SWIDTH 310 0
DWIDTH 9 0
BBX 18 29 -1 -6
BITMAP
000000
000000
000000
000000
000000
000000
003E00
003E00
007C00
007C00
007C00
00F800
00F800
00F800
01F000
01F000
01F000
03E000
03E000
03E000
07C000
07C000
07C000
000000
000000
000000
000000
000000
000000
ENDCHAR
STARTCHAR C232
ENCODING -1
SWIDTH 310 0
DWIDTH 9 0
BBX 18 29 -1 -6
BITMAP
000000
000000
000000
000000
000000
000000
003E00
003E00
007C00
007C00
007C00
00F800
00F800
00F800
01F000
01F000
01F000
03E000
03E000
03E000
07C000
07C000
07C000
000000
000000
000000
000000
000000
000000
ENDCHAR
STARTCHAR C233
ENCODING -1
SWIDTH 310 0
DWIDTH 9 0
BBX 18 29 -1 -6
BITMAP
000000
000000
000000
000000
000000
000000
003E00
003E00
007C00
007C00
007C00
00F800
00F800
00F800
01F000
01F000
01F000
03E000
03E000
03E000
07C000
07C000
07C000
000000
000000
000000
000000
000000
000000
ENDCHAR
STARTCHAR C234
ENCODING 176
SWIDTH 310 0
DWIDTH 9 0
BBX 18 29 -1 -6
BITMAP
000000
000000
000000
000000
000000
000000
003E00
003E00
007C00
007C00
007C00
00F800
00F800
00F800
01F000
01F000
01F000
03E000
03E000
03E000
07C000
07C000
07C000
000000
000000
000000
000000
000000
000000
ENDCHAR
STARTCHAR C235
ENCODING 178
SWIDTH 310 0
DWIDTH 9 0
BBX 18 29 -1 -6
BITMAP
000000
000000
000000
000000
000000
000000
003E00
003E00
007C00
007C00
007C00
00F800
00F800
00F800
01F000
01F000
01F000
03E000
03E000
03E000
07C000
07C000
07C000
000000
000000
000000
000000
000000
000000
ENDCHAR
STARTCHAR C236
ENCODING -1
SWIDTH 310 0
DWIDTH 9 0
BBX 18 29 -1 -6
BITMAP
000000
000000
000000
000000
000000
000000
003E00
003E00
007C00
007C00
007C00
00F800
00F800
00F800
01F000
01F000
01F000
03E000
03E000
03E000
07C000
07C000
07C000
000000
000000
000000
000000
000000
000000
ENDCHAR
STARTCHAR C237
ENCODING -1
SWIDTH 310 0
DWIDTH 9 0
BBX 18 29 -1 -6
BITMAP
000000
000000
000000
000000
000000
000000
003E00
003E00
007C00
007C00
007C00
00F800
00F800
00F800
01F000
01F000
01F000
03E000
03E000
03E000
07C000
07C000
07C000
000000
000000
000000
000000
000000
000000
ENDCHAR
STARTCHAR C240
ENCODING 160
SWIDTH 241 0
DWIDTH 7 0
BBX 16 29 -1 -6
BITMAP
0000
0000
0000
0000
0000
0000
0000
0000
0000
0000
0000
0000
0000
0000
0000
0000
0000
0000
0000
0000
0000
0000
0000
0000
0000
0000
0000
0000
0000
ENDCHAR
STARTCHAR exclamdown
ENCODING 161
SWIDTH 241 0
DWIDTH 7 0
BBX 16 29 -1 -6
BITMAP
0000
0000
0000
0000
0000
0000
0038
0038
0000
0000
0070
00E0
00E0
00E0
01C0
01C0
01C0
0380
0380
0380
0700
0700
0700
0000
0000
0000
0000
0000
0000
ENDCHAR
STARTCHAR cent
ENCODING 162
SWIDTH 482 0
DWIDTH 14 0
BBX 23 29 -1 -6
BITMAP
000000
000000
000000
000000
000000
000000
000000
000000
000000
0000C0
0001C0
001F00
007FC0
00F7E0
01CDC0
039C00
039800
073000
077000
03E380
07CF00
03FE00
01F800
070000
060000
000000
000000
000000
000000
ENDCHAR
STARTCHAR sterling
ENCODING 163
SWIDTH 482 0
DWIDTH 14 0
BBX 23 29 -1 -6
BITMAP
000000
000000
000000
000000
000000
000000
0007E0
000FF0
003CF0
003870
003800
007000
007000
01FE00
03FC00
007000
007000
00E000
00E000
01C000
07F700
0FFF00
077E00
000000
000000
000000
000000
000000
000000
ENDCHAR
STARTCHAR currency
ENCODING 164
SWIDTH 482 0
DWIDTH 14 0
BBX 23 29 -1 -6
BITMAP
000000
000000
000000
000000
000000
000000
000000
003030
00FFF0
007FE0
0039C0
00E1C0
00E1C0
00E1C0
00E700
01FF80
03FFC0
030300
000000
000000
000000
000000
000000
000000
000000
000000
000000
000000
000000
ENDCHAR
STARTCHAR yen
ENCODING 165
SWIDTH 482 0
DWIDTH 14 0
BBX 23 29 -1 -6
BITMAP
000000
000000
000000
000000
000000
000000
00E038
00E038
00E0E0
0071C0
0071C0
007700
003E00
003E00
03FF80
003800
003800
07FF00
007000
007000
00E000
00E000
00E000
000000
000000
000000
000000
000000
000000
ENDCHAR
STARTCHAR brokenbar
ENCODING 166
SWIDTH 241 0
DWIDTH 7 0
BBX 16 29 -1 -6
BITMAP
0000
0000
0000
0000
0000
0000
0038
0038
0070
0070
0070
00E0
00E0
0000
0000
0000
01C0
0380
0380
0380
0700
0700
0700
0000
0000
0000
0000
0000
0000
ENDCHAR
STARTCHAR section
ENCODING 167
SWIDTH 482 0
DWIDTH 14 0
BBX 23 29 -1 -6
BITMAP
000000
000000
000000
000000
000000
000FC0
001FE0
003CF0
0070E0
0078E0
003C00
00FC00
01FE00
01CF00
038F00
03C780
01E3C0
01E380
00F380
007F80
007E00
003C00
071E00
0E1C00
0F3C00
07F800
07E000
000000
000000
ENDCHAR
STARTCHAR dieresis
ENCODING 168
SWIDTH 310 0
DWIDTH 9 0
BBX 18 29 -1 -6
BITMAP
000000
000000
000000
000000
000000
000000
007700
007700
000000
000000
000000
000000
000000
000000
000000
000000
000000
000000
000000
000000
000000
000000
000000
000000
000000
000000
000000
000000
000000
ENDCHAR
STARTCHAR copyright
ENCODING 191
SWIDTH 724 0
DWIDTH 21 0
BBX 30 29 -1 -6
BITMAP
00000000
00000000
00000000
00000000
00000000
00000000
0001FC00
00078F00
001C0700
0039F380
0033B980
00EE3B80
00CE3980
00CE0180
019C0300
019C0300
019C7300
03B8EE00
019DCC00
01CF9C00
01C07000
00F1E000
003F8000
00000000
00000000
00000000
00000000
00000000
00000000
ENDCHAR
STARTCHAR ordfeminine
ENCODING 170
SWIDTH 310 0
DWIDTH 9 0
BBX 18 29 -1 -6
BITMAP
000000
000000
000000
000000
000000
000000
003E00
007700
00EE00
003E00
007E00
01DC00
01DC00
00FE00
000000
03FC00
03FC00
000000
000000
000000
000000
000000
000000
000000
000000
000000
000000
000000
000000
ENDCHAR
STARTCHAR guillemotleft
ENCODING 171
SWIDTH 482 0
DWIDTH 14 0
BBX 23 29 -1 -6
BITMAP
000000
000000
000000
000000
000000
000000
000000
000000
000000
000000
000000
000000
000000
0018C0
007380
00E700
01CE00
039C00
01CE00
00E700
00C600
000000
000000
000000
000000
000000
000000
000000
000000
ENDCHAR
STARTCHAR logicalnot
ENCODING 172
SWIDTH 517 0
DWIDTH 15 0
BBX 24 29 -1 -6
BITMAP
000000
000000
000000
000000
000000
000000
000000
000000
000000
000000
000000
000000
000000
01FFE0
03FFC0
0001C0
0001C0
000380
000380
000000
000000
000000
000000
000000
000000
000000
000000
000000
000000
ENDCHAR
STARTCHAR hyphen
ENCODING 173
SWIDTH 310 0
DWIDTH 9 0
BBX 18 29 -1 -6
BITMAP
000000
000000
000000
000000
000000
000000
000000
000000
000000
000000
000000
000000
000000
000000
000000
000000
03F800
07F000
000000
000000
000000
000000
000000
000000
000000
000000
000000
000000
000000
ENDCHAR
STARTCHAR registered
ENCODING 174
SWIDTH 724 0
DWIDTH 21 0
BBX 30 29 -1 -6
BITMAP
00000000
00000000
00000000
00000000
00000000
00000000
0001FC00
00078F00
001C0700
003FF380
00373980
00EE3B80
00CE3980
00CE7180
019FC300
019CE300
019C7300
03B8EE00
01B8EC00
01F8FC00
01C07000
00F1E000
003F8000
00000000
00000000
00000000
00000000
00000000
00000000
ENDCHAR
STARTCHAR macron
ENCODING 175
SWIDTH 482 0
DWIDTH 14 0
BBX 23 29 -1 -6
BITMAP
000000
000000
000000
007FFE
007FFE
000000
000000
000000
000000
000000
000000
000000
000000
000000
000000
000000
000000
000000
000000
000000
000000
000000
000000
000000
000000
000000
000000
000000
000000
ENDCHAR
STARTCHAR degree
ENCODING 156
SWIDTH 310 0
DWIDTH 9 0
BBX 18 29 -1 -6
BITMAP
000000
000000
000000
000000
000000
000000
001C00
003E00
00EE00
00EE00
007C00
007000
000000
000000
000000
000000
000000
000000
000000
000000
000000
000000
000000
000000
000000
000000
000000
000000
000000
ENDCHAR
STARTCHAR plusminus
ENCODING 177
SWIDTH 517 0
DWIDTH 15 0
BBX 24 29 -1 -6
BITMAP
000000
000000
000000
000000
000000
000000
000000
000380
000700
000700
000700
000E00
01FFF0
01FFF0
001C00
001C00
001C00
003800
003800
000000
000000
0FFF80
0FFF80
000000
000000
000000
000000
000000
000000
ENDCHAR
STARTCHAR twosuperior
ENCODING 157
SWIDTH 275 0
DWIDTH 8 0
BBX 17 29 -1 -6
BITMAP
000000
000000
000000
000000
000000
000000
003E00
007700
000E00
001C00
003800
00E000
01C000
01FC00
000000
000000
000000
000000
000000
000000
000000
000000
000000
000000
000000
000000
000000
000000
000000
ENDCHAR
STARTCHAR threesuperior
ENCODING 179
SWIDTH 275 0
DWIDTH 8 0
BBX 17 29 -1 -6
BITMAP
000000
000000
000000
000000
000000
000000
003E00
007700
000E00
003C00
000E00
001C00
01DC00
00F800
000000
000000
000000
000000
000000
000000
000000
000000
000000
000000
000000
000000
000000
000000
000000
ENDCHAR
STARTCHAR acute
ENCODING 180
SWIDTH 310 0
DWIDTH 9 0
BBX 18 29 -1 -6
BITMAP
000000
000000
000000
000000
000000
000000
000F00
001E00
007000
00C000
000000
000000
000000
000000
000000
000000
000000
000000
000000
000000
000000
000000
000000
000000
000000
000000
000000
000000
000000
ENDCHAR
STARTCHAR mu
ENCODING 181
SWIDTH 482 0
DWIDTH 14 0
BBX 23 29 -1 -6
BITMAP
000000
000000
000000
000000
000000
000000
000000
000000
000000
000000
000000
00E1C0
00E1C0
00E1C0
01C380
01C380
01C380
038700
038700
038700
079E00
07FF00
07F700
0E0000
0E0000
0E0000
1C0000
000000
000000
ENDCHAR
STARTCHAR paragraph
ENCODING 182
SWIDTH 448 0
DWIDTH 13 0
BBX 22 29 -1 -6
BITMAP
000000
000000
000000
000000
000000
000000
000000
000000
001FE0
007EC0
007EC0
01FD80
01FD80
00FD80
01FB00
007B00
001B00
003600
003600
003600
006C00
006C00
006C00
00D800
00D800
00D800
000000
000000
000000
ENDCHAR
STARTCHAR periodcentered
ENCODING 183
SWIDTH 241 0
DWIDTH 7 0
BBX 16 29 -1 -6
BITMAP
0000
0000
0000
0000
0000
0000
0000
0000
0000
0000
0000
0000
0000
00E0
01C0
0000
0000
0000
0000
0000
0000
0000
0000
0000
0000
0000
0000
0000
0000
ENDCHAR
STARTCHAR cedilla
ENCODING 184
SWIDTH 310 0
DWIDTH 9 0
BBX 18 29 -1 -6
BITMAP
000000
000000
000000
000000
000000
000000
000000
000000
000000
000000
000000
000000
000000
000000
000000
000000
000000
000000
000000
000000
000000
000000
000000
060000
078000
01C000
038000
1F0000
000000
ENDCHAR
STARTCHAR onesuperior
ENCODING 185
SWIDTH 275 0
DWIDTH 8 0
BBX 17 29 -1 -6
BITMAP
000000
000000
000000
000000
000000
000000
001C00
007C00
003800
003800
003800
007000
007000
007000
000000
000000
000000
000000
000000
000000
000000
000000
000000
000000
000000
000000
000000
000000
000000
ENDCHAR
STARTCHAR ordmasculine
ENCODING 186
SWIDTH 310 0
DWIDTH 9 0
BBX 18 29 -1 -6
BITMAP
000000
000000
000000
000000
000000
000000
001E00
003F00
00E700
00E700
00E700
01CE00
00FC00
007800
000000
03FC00
03FC00
000000
000000
000000
000000
000000
000000
000000
000000
000000
000000
000000
000000
ENDCHAR
STARTCHAR guillemotright
ENCODING 187
SWIDTH 482 0
DWIDTH 14 0
BBX 23 29 -1 -6
BITMAP
000000
000000
000000
000000
000000
000000
000000
000000
000000
000000
000000
000000
000000
00C600
01CE00
00E700
007380
00E700
01CE00
039C00
063000
000000
000000
000000
000000
000000
000000
000000
000000
ENDCHAR
STARTCHAR onequarter
ENCODING 188
SWIDTH 655 0
DWIDTH 19 0
BBX 28 29 -1 -6
BITMAP
00000000
00000000
00000000
00000000
00000000
00000000
001C0700
007C0700
00381C00
00383800
00383800
0070E000
0071C000
0071C000
00070000
000E0E00
000E1E00
00387C00
0070FC00
0071DC00
01C3F800
03803800
03803800
00000000
00000000
00000000
00000000
00000000
00000000
ENDCHAR
STARTCHAR onehalf
ENCODING 189
SWIDTH 655 0
DWIDTH 19 0
BBX 28 29 -1 -6
BITMAP
00000000
00000000
00000000
00000000
00000000
00000000
001C0700
007C0700
00381C00
00383800
00383800
0070E000
0071C000
0071C000
00070000
000E7C00
000EEE00
00381C00
00703800
00707000
01C1C000
03838000
0383F800
00000000
00000000
00000000
00000000
00000000
00000000
ENDCHAR
STARTCHAR threequarters
ENCODING 190
SWIDTH 655 0
DWIDTH 19 0
BBX 28 29 -1 -6
BITMAP
00000000
00000000
00000000
00000000
00000000
00000000
003E0700
00770700
000E1C00
003C3800
000E3800
001CE000
01DDC000
00F9C000
00070000
000E0E00
000E1E00
00387C00
0070FC00
0071DC00
01C3F800
03803800
03803800
00000000
00000000
00000000
00000000
00000000
00000000
ENDCHAR
STARTCHAR questiondown
ENCODING 169
SWIDTH 448 0
DWIDTH 13 0
BBX 22 29 -1 -6
BITMAP
000000
000000
000000
000000
000000
000000
000700
000700
000000
000000
000000
001C00
001C00
001C00
007800
00F000
01E000
078000
070000
070700
071E00
07FC00
01F000
000000
000000
000000
000000
000000
000000
ENDCHAR
STARTCHAR cyr-A
ENCODING 225
SWIDTH 551 0
DWIDTH 16 0
BBX 25 29 -1 -6
BITMAP
00000000
00000000
00000000
00000000
00000000
00000000
0003C000
0003C000
000FC000
000FC000
000FC000
003FC000
0039C000
0039C000
00F3C000
00E1C000
01E1E000
03FFC000
03FFC000
0781E000
0E01C000
1E01E000
1E01E000
00000000
00000000
00000000
00000000
00000000
00000000
ENDCHAR
STARTCHAR cyr-Be
ENCODING 226
SWIDTH 586 0
DWIDTH 17 0
BBX 26 29 -1 -6
BITMAP
00000000
00000000
00000000
00000000
00000000
00000000
003FFE00
003FFE00
00700000
00700000
00700000
00E00000
00E00000
00FFF000
01FFF000
01C07000
01C03800
03807000
03807000
03807000
0701C000
07FFC000
07FF0000
00000000
00000000
00000000
00000000
00000000
00000000
ENDCHAR
STARTCHAR cyr-Ve
ENCODING 247
SWIDTH 586 0
DWIDTH 17 0
BBX 26 29 -1 -6
BITMAP
00000000
00000000
00000000
00000000
00000000
00000000
003FF000
003FFC00
00703800
00701C00
00701C00
00E03800
00E07800
00FFF000
01FFF000
01C07000
01C03800
03807000
03807000
03807000
0701C000
07FFC000
07FF0000
00000000
00000000
00000000
00000000
00000000
00000000
ENDCHAR
STARTCHAR cyr-Ghe
ENCODING 231
SWIDTH 586 0
DWIDTH 17 0
BBX 26 29 -1 -6
BITMAP
00000000
00000000
00000000
00000000
00000000
00000000
003FFF00
003FFF00
00700000
00700000
00700000
00E00000
00E00000
00E00000
01C00000
01C00000
01C00000
03800000
03800000
03800000
07000000
07000000
07000000
00000000
00000000
00000000
00000000
00000000
00000000
ENDCHAR
STARTCHAR cyr-De
ENCODING 228
SWIDTH 655 0
DWIDTH 19 0
BBX 28 29 -1 -6
BITMAP
00000000
00000000
00000000
00000000
00000000
00000000
0007FF00
0007FF00
000E0E00
000E0E00
000E0E00
001C1C00
001C1C00
001C1C00
00383800
00383800
00383800
00707000
00707000
00707000
01C0E000
0FFFF800
0FFFF800
1C007000
1C007000
00000000
00000000
00000000
00000000
ENDCHAR
STARTCHAR cyr-Ie
ENCODING 229
SWIDTH 586 0
DWIDTH 17 0
BBX 26 29 -1 -6
BITMAP
00000000
00000000
00000000
00000000
00000000
00000000
003FFF00
003FFF00
00700000
00700000
00700000
00E00000
00E00000
00FFF000
01FFE000
01C00000
01C00000
03800000
03800000
03800000
07000000
07FFE000
07FFE000
00000000
00000000
00000000
00000000
00000000
00000000
ENDCHAR
STARTCHAR cyr-Zhe
ENCODING 246
SWIDTH 862 0
DWIDTH 25 0
BBX 34 29 -1 -6
BITMAP
0000000000
0000000000
0000000000
0000000000
0000000000
0000000000
00701C0700
00781C0F00
0078383C00
003C387800
001E38F000
001E73C000
000F778000
0007FF0000
000FFE0000
000FFE0000
001EEF0000
0079CF0000
00F1C78000
01E1C3C000
078383C000
0F0381E000
1E0380F000
0000000000
0000000000
0000000000
0000000000
0000000000
0000000000
ENDCHAR
STARTCHAR cyr-Ze
ENCODING 250
SWIDTH 586 0
DWIDTH 17 0
BBX 26 29 -1 -6
BITMAP
00000000
00000000
00000000
00000000
00000000
00000000
0007F000
001FFC00
00783C00
00701C00
00001C00
00003800
00007800
0007F000
000FE000
0000F000
00007800
00007000
00007000
07007000
0F01E000
07FFC000
01FF8000
00000000
00000000
00000000
00000000
00000000
00000000
ENDCHAR
STARTCHAR cyr-I
ENCODING 233
SWIDTH 655 0
DWIDTH 19 0
BBX 28 29 -1 -6
BITMAP
00000000
00000000
00000000
00000000
00000000
00000000
00380380
00380380
00700700
00700F00
00701F00
00E07E00
00E0FE00
00E1EE00
01C79C00
01CF1C00
01DE1C00
03F83800
03F03800
03E03800
07807000
07007000
07007000
00000000
00000000
00000000
00000000
00000000
00000000
ENDCHAR
STARTCHAR cyr-I-short
ENCODING 234
SWIDTH 655 0
DWIDTH 19 0
BBX 28 29 -1 -6
BITMAP
00000000
00000000
00000000
0003DE00
0001FC00
0001F000
00380380
00380380
00700700
00700F00
00701F00
00E07E00
00E0FE00
00E1EE00
01C79C00
01CF1C00
01DE1C00
03F83800
03F03800
03E03800
07807000
07007000
07007000
00000000
00000000
00000000
00000000
00000000
00000000
ENDCHAR
STARTCHAR cyr-Ka
ENCODING 235
SWIDTH 586 0
DWIDTH 17 0
BBX 26 29 -1 -6
BITMAP
00000000
00000000
00000000
00000000
00000000
00000000
00380F00
00381E00
00707800
0070F000
0071E000
00E78000
00EF0000
00FF8000
01FF0000
01F78000
01E3C000
03838000
0383C000
0381E000
0701C000
0701E000
0700F000
00000000
00000000
00000000
00000000
00000000
00000000
ENDCHAR
STARTCHAR cyr-El
ENCODING 236
SWIDTH 551 0
DWIDTH 16 0
BBX 25 29 -1 -6
BITMAP
00000000
00000000
00000000
00000000
00000000
00000000
001FFC00
001FFC00
00383800
00383800
00383800
00707000
00707000
00707000
00E0E000
00E0E000
00E0E000
01C1C000
01C1C000
01C1C000
03838000
0F838000
0F038000
00000000
00000000
00000000
00000000
00000000
00000000
ENDCHAR
STARTCHAR cyr-Em
ENCODING 237
SWIDTH 724 0
DWIDTH 21 0
BBX 30 29 -1 -6
BITMAP
00000000
00000000
00000000
00000000
00000000
00000000
003800E0
003800E0
007803C0
007803C0
007C07C0
00F80F80
00FC1F80
00FC1F80
01FC7F00
01DC7700
01DEF700
039DCE00
039FCE00
038F8E00
071F1C00
070E1C00
070E1C00
00000000
00000000
00000000
00000000
00000000
00000000
ENDCHAR
STARTCHAR cyr-En
ENCODING 238
SWIDTH 620 0
DWIDTH 18 0
BBX 27 29 -1 -6
BITMAP
00000000
00000000
00000000
00000000
00000000
00000000
00380700
00380700
00700E00
00700E00
00700E00
00E01C00
00E01C00
00FFFC00
01FFF800
01C03800
01C03800
03807000
03807000
03807000
0700E000
0700E000
0700E000
00000000
00000000
00000000
00000000
00000000
00000000
ENDCHAR
STARTCHAR cyr-O
ENCODING 239
SWIDTH 689 0
DWIDTH 20 0
BBX 29 29 -1 -6
BITMAP
00000000
00000000
00000000
00000000
00000000
00000000
0003FC00
000FFF00
003E1F00
00780780
00700380
01E00780
01C00380
01C00380
03800700
03800700
03800700
07801E00
03801C00
03C03C00
03E1F000
01FFE000
007F8000
00000000
00000000
00000000
00000000
00000000
00000000
ENDCHAR
STARTCHAR cyr-Pe
ENCODING 240
SWIDTH 620 0
DWIDTH 18 0
BBX 27 29 -1 -6
BITMAP
00000000
00000000
00000000
00000000
00000000
00000000
003FFF00
003FFF00
00700E00
00700E00
00700E00
00E01C00
00E01C00
00E01C00
01C03800
01C03800
01C03800
03807000
03807000
03807000
0700E000
0700E000
0700E000
00000000
00000000
00000000
00000000
00000000
00000000
ENDCHAR
STARTCHAR cyr-Er
ENCODING 242
SWIDTH 586 0
DWIDTH 17 0
BBX 26 29 -1 -6
BITMAP
00000000
00000000
00000000
00000000
00000000
00000000
003FFC00
003FFF00
00700E00
00700700
00700700
00E00E00
00E00E00
00E01C00
01FFF800
01FFE000
01C00000
03800000
03800000
03800000
07000000
07000000
07000000
00000000
00000000
00000000
00000000
00000000
00000000
ENDCHAR
STARTCHAR cyr-Es
ENCODING 243
SWIDTH 620 0
DWIDTH 18 0
BBX 27 29 -1 -6
BITMAP
00000000
00000000
00000000
00000000
00000000
00000000
0003FC00
000FFF00
003E1F00
00780700
00700380
01E00700
01C00000
01C00000
03800000
03800000
03800000
07801C00
03801C00
03C03800
03E1F000
01FFE000
007F8000
00000000
00000000
00000000
00000000
00000000
00000000
ENDCHAR
STARTCHAR cyr-Te
ENCODING 244
SWIDTH 586 0
DWIDTH 17 0
BBX 26 29 -1 -6
BITMAP
00000000
00000000
00000000
00000000
00000000
00000000
00FFFF80
00FFFF80
00038000
00038000
00038000
00070000
00070000
00070000
000E0000
000E0000
000E0000
001C0000
001C0000
001C0000
00380000
00380000
00380000
00000000
00000000
00000000
00000000
00000000
00000000
ENDCHAR
STARTCHAR cyr-U
ENCODING 245
SWIDTH 517 0
DWIDTH 15 0
BBX 24 29 -1 -6
BITMAP
000000
000000
000000
000000
000000
000000
00701C
00701C
00F078
007070
007070
00F1E0
0071C0
007BC0
007700
007700
003E00
007C00
007C00
007800
00F000
07E000
07C000
000000
000000
000000
000000
000000
000000
ENDCHAR
STARTCHAR cyr-Ef
ENCODING 230
SWIDTH 724 0
DWIDTH 21 0
BBX 30 29 -1 -6
BITMAP
00000000
00000000
00000000
00000000
00000000
00000000
0003FE00
000FFF80
003EEF80
0078E3C0
0070E1C0
01E1C3C0
01C1C1C0
01C1C1C0
03838380
03C38780
01C38700
03C71E00
01F77C00
00FFF800
007FC000
000E0000
000E0000
00000000
00000000
00000000
00000000
00000000
00000000
ENDCHAR
STARTCHAR cyr-Kha
ENCODING 232
SWIDTH 620 0
DWIDTH 18 0
BBX 27 29 -1 -6
BITMAP
00000000
00000000
00000000
00000000
00000000
00000000
00E001C0
00F003C0
00F00F00
00781E00
003C3C00
003CF000
001FE000
000FC000
000F0000
001F8000
003FC000
00F3C000
01E1E000
03C0F000
0F00F000
1E007800
1C003800
00000000
00000000
00000000
00000000
00000000
00000000
ENDCHAR
STARTCHAR cyr-Tse
ENCODING 227
SWIDTH 620 0
DWIDTH 18 0
BBX 27 29 -1 -6
BITMAP
00000000
00000000
00000000
00000000
00000000
00000000
00380700
00380700
00700E00
00700E00
00700E00
00E01C00
00E01C00
00E01C00
01C03800
01C03800
01C03800
03807000
03807000
03807000
0700E000
07FFF000
07FFF000
0000E000
0000E000
00000000
00000000
00000000
00000000
ENDCHAR
STARTCHAR cyr-Che
ENCODING 254
SWIDTH 620 0
DWIDTH 18 0
BBX 27 29 -1 -6
BITMAP
00000000
00000000
00000000
00000000
00000000
00000000
00380700
00380700
00700E00
00700E00
00700E00
00E01C00
00E01C00
00FFFC00
00FFF800
00003800
00003800
00007000
00007000
00007000
0000E000
0000E000
0000E000
00000000
00000000
00000000
00000000
00000000
00000000
ENDCHAR
STARTCHAR cyr-Sha
ENCODING 251
SWIDTH 793 0
DWIDTH 23 0
BBX 32 29 -1 -6
BITMAP
00000000
00000000
00000000
00000000
00000000
00000000
0070381C
0070381C
00E07038
00E07038
00E07038
01C0E070
01C0E070
01C0E070
0381C0E0
0381C0E0
0381C0E0
070381C0
070381C0
070381C0
0E070380
0FFFFF80
0FFFFF80
00000000
00000000
00000000
00000000
00000000
00000000
ENDCHAR
STARTCHAR cyr-Shcha
ENCODING 253
SWIDTH 827 0
DWIDTH 24 0
BBX 33 29 -1 -6
BITMAP
0000000000
0000000000
0000000000
0000000000
0000000000
0000000000
0070381C00
0070381C00
00E0703800
00E0703800
00E0703800
01C0E07000
01C0E07000
01C0E07000
0381C0E000
0381C0E000
0381C0E000
070381C000
070381C000
070381C000
0E07038000
0FFFFFC000
0FFFFFC000
0000038000
0000038000
0000000000
0000000000
0000000000
0000000000
ENDCHAR
STARTCHAR cyr-Ier
ENCODING 255
SWIDTH 724 0
DWIDTH 21 0
BBX 30 29 -1 -6
BITMAP
00000000
00000000
00000000
00000000
00000000
00000000
007E0000
007E0000
001C0000
001C0000
001C0000
00380000
00380000
003FFF00
007FFF00
00700780
00700380
00E00700
00E00700
00E00700
01C01E00
01FFFC00
01FFF800
00000000
00000000
00000000
00000000
00000000
00000000
ENDCHAR
STARTCHAR cyr-Iery
ENCODING 249
SWIDTH 793 0
DWIDTH 23 0
BBX 32 29 -1 -6
BITMAP
00000000
00000000
00000000
00000000
00000000
00000000
00380038
00380038
00700070
00700070
00700070
00E000E0
00E000E0
00FFFCE0
01FFFDC0
01C01FC0
01C00FC0
03801F80
03801F80
03801F80
07007F00
07FFF700
07FFE700
00000000
00000000
00000000
00000000
00000000
00000000
ENDCHAR
STARTCHAR cyr-Ierik
ENCODING 248
SWIDTH 655 0
DWIDTH 19 0
BBX 28 29 -1 -6
BITMAP
00000000
00000000
00000000
00000000
00000000
00000000
00380000
00380000
00700000
00700000
00700000
00E00000
00E00000
00FFFC00
01FFFC00
01C01E00
01C00E00
03801C00
03801C00
03801C00
07007800
07FFF000
07FFE000
00000000
00000000
00000000
00000000
00000000
00000000
ENDCHAR
STARTCHAR cyr-E-rev
ENCODING 252
SWIDTH 620 0
DWIDTH 18 0
BBX 27 29 -1 -6
BITMAP
00000000
00000000
00000000
00000000
00000000
00000000
000FF000
003FFC00
00F87C00
00E01E00
00000E00
00001E00
00000E00
0007FE00
000FFC00
00001C00
00001C00
00007800
00007000
0700F000
0F87C000
07FF8000
01FE0000
00000000
00000000
00000000
00000000
00000000
00000000
ENDCHAR
STARTCHAR cyr-Yu
ENCODING 224
SWIDTH 793 0
DWIDTH 23 0
BBX 32 29 -1 -6
BITMAP
00000000
00000000
00000000
00000000
00000000
00000000
00383F80
0038FFE0
0073E3E0
007780F0
00770070
00FE00F0
00FC0070
00FC0070
01F800E0
01F800E0
01F800E0
03F803C0
03B80380
03BC0780
073E3E00
071FFC00
0707F000
00000000
00000000
00000000
00000000
00000000
00000000
ENDCHAR
STARTCHAR cyr-Ya
ENCODING 241
SWIDTH 620 0
DWIDTH 18 0
BBX 27 29 -1 -6
BITMAP
00000000
00000000
00000000
00000000
00000000
00000000
001FFF00
003FFF00
00F00E00
00E00E00
00E00E00
01C01C00
01C01C00
01C01C00
03C03800
01FFF800
007FF800
003C7000
00787000
00F07000
03C0E000
0780E000
0F00E000
00000000
00000000
00000000
00000000
00000000
00000000
ENDCHAR
STARTCHAR cyr-a
ENCODING 193
SWIDTH 482 0
DWIDTH 14 0
BBX 23 29 -1 -6
BITMAP
000000
000000
000000
000000
000000
000000
000000
000000
000000
000000
000000
003E00
00FF80
00E380
000380
000780
007F80
03FF00
078700
070700
0F1E00
07FF80
03F780
000000
000000
000000
000000
000000
000000
ENDCHAR
STARTCHAR cyr-be
ENCODING 194
SWIDTH 517 0
DWIDTH 15 0
BBX 24 29 -1 -6
BITMAP
000000
000000
000000
000000
000000
000000
000000
000078
001FE0
007FC0
00F000
01FF80
01FFE0
01E0E0
03C1E0
0380E0
0380E0
0701C0
0701C0
0703C0
070700
07FF00
01FC00
000000
000000
000000
000000
000000
000000
ENDCHAR
STARTCHAR cyr-ve
ENCODING 215
SWIDTH 482 0
DWIDTH 14 0
BBX 23 29 -1 -6
BITMAP
000000
000000
000000
000000
000000
000000
000000
000000
000000
000000
000000
00FFC0
00FFE0
00E0E0
01C1C0
01C1C0
01FF80
03FF80
038380
038380
070700
07FF00
07FE00
000000
000000
000000
000000
000000
000000
ENDCHAR
STARTCHAR cyr-ghe
ENCODING 199
SWIDTH 448 0
DWIDTH 13 0
BBX 22 29 -1 -6
BITMAP
000000
000000
000000
000000
000000
000000
000000
000000
000000
000000
000000
00FFC0
00FFC0
00E000
01C000
01C000
01C000
038000
038000
038000
070000
070000
070000
000000
000000
000000
000000
000000
000000
ENDCHAR
STARTCHAR cyr-de
ENCODING 196
SWIDTH 551 0
DWIDTH 16 0
BBX 25 29 -1 -6
BITMAP
00000000
00000000
00000000
00000000
00000000
00000000
00000000
00000000
00000000
00000000
00000000
003FE000
003FE000
0038E000
0071C000
0071C000
0071C000
00E38000
00E38000
00E38000
03870000
0FFFC000
0FFFC000
1C038000
1C038000
00000000
00000000
00000000
00000000
ENDCHAR
STARTCHAR cyr-ie
ENCODING 197
SWIDTH 517 0
DWIDTH 15 0
BBX 24 29 -1 -6
BITMAP
000000
000000
000000
000000
000000
000000
000000
000000
000000
000000
000000
001F00
007FC0
00F1E0
01C1C0
0380E0
03FFE0
07FFC0
070000
038000
078780
03FF00
00FC00
000000
000000
000000
000000
000000
000000
ENDCHAR
STARTCHAR cyr-zhe
ENCODING 214
SWIDTH 724 0
DWIDTH 21 0
BBX 30 29 -1 -6
BITMAP
00000000
00000000
00000000
00000000
00000000
00000000
00000000
00000000
00000000
00000000
00000000
01C1C1C0
01E1C3C0
00F1C780
00F39E00
007BBC00
003FF800
003FE000
007FF000
00F77800
03CE7800
078E3C00
0F0E1E00
00000000
00000000
00000000
00000000
00000000
00000000
ENDCHAR
STARTCHAR cyr-z
ENCODING 218
SWIDTH 448 0
DWIDTH 13 0
BBX 22 29 -1 -6
BITMAP
000000
000000
000000
000000
000000
000000
000000
000000
000000
000000
000000
00FF80
01FFC0
01C1C0
000380
000380
003F00
007F00
000700
000700
0E0E00
0FFE00
07FC00
000000
000000
000000
000000
000000
000000
ENDCHAR
STARTCHAR cyr-i
ENCODING 201
SWIDTH 448 0
DWIDTH 13 0
BBX 22 29 -1 -6
BITMAP
000000
000000
000000
000000
000000
000000
000000
000000
000000
000000
000000
01C1C0
01C1C0
01C3C0
038F80
039F80
03BF80
07F700
07E700
07C700
0F0E00
0E0E00
0E0E00
000000
000000
000000
000000
000000
000000
ENDCHAR
STARTCHAR cyr-i-short
ENCODING 202
SWIDTH 448 0
DWIDTH 13 0
BBX 22 29 -1 -6
BITMAP
000000
000000
000000
000000
000000
000000
000000
000000
003B80
003F80
001F00
01C1C0
01C1C0
01C3C0
038F80
039F80
03BF80
07F700
07E700
07C700
0F0E00
0E0E00
0E0E00
000000
000000
000000
000000
000000
000000
ENDCHAR
STARTCHAR cyr-ka
ENCODING 203
SWIDTH 448 0
DWIDTH 13 0
BBX 22 29 -1 -6
BITMAP
000000
000000
000000
000000
000000
000000
000000
000000
000000
000000
000000
00E3C0
00E780
00EF00
01FC00
01F800
01FC00
03FC00
039C00
039E00
071E00
070E00
070F00
000000
000000
000000
000000
000000
000000
ENDCHAR
STARTCHAR cyr-el
ENCODING 204
SWIDTH 482 0
DWIDTH 14 0
BBX 23 29 -1 -6
BITMAP
000000
000000
000000
000000
000000
000000
000000
000000
000000
000000
000000
007FC0
007FC0
0071C0
00E380
00E380
00E380
01C700
01C700
01C700
038E00
078E00
0F0E00
000000
000000
000000
000000
000000
000000
ENDCHAR
STARTCHAR cyr-em
ENCODING 205
SWIDTH 586 0
DWIDTH 17 0
BBX 26 29 -1 -6
BITMAP
00000000
00000000
00000000
00000000
00000000
00000000
00000000
00000000
00000000
00000000
00000000
01C01C00
01E03C00
01F07C00
03F1F800
03FBF800
03BFB800
073E7000
071C7000
07007000
0E00E000
0E00E000
0E00E000
00000000
00000000
00000000
00000000
00000000
00000000
ENDCHAR
STARTCHAR cyr-en
ENCODING 206
SWIDTH 482 0
DWIDTH 14 0
BBX 23 29 -1 -6
BITMAP
000000
000000
000000
000000
000000
000000
000000
000000
000000
000000
000000
00E1C0
00E1C0
00E1C0
01C380
01C380
01FF80
03FF00
038700
038700
070E00
070E00
070E00
000000
000000
000000
000000
000000
000000
ENDCHAR
STARTCHAR cyr-o
ENCODING 207
SWIDTH 517 0
DWIDTH 15 0
BBX 24 29 -1 -6
BITMAP
000000
000000
000000
000000
000000
000000
000000
000000
000000
000000
000000
003F80
00FFE0
00F1E0
03C1E0
0380E0
0380E0
0701C0
0701C0
0783C0
078F00
07FF00
01FC00
000000
000000
000000
000000
000000
000000
ENDCHAR
STARTCHAR cyr-pe
ENCODING 208
SWIDTH 482 0
DWIDTH 14 0
BBX 23 29 -1 -6
BITMAP
000000
000000
000000
000000
000000
000000
000000
000000
000000
000000
000000
00FFC0
00FFC0
00E1C0
01C380
01C380
01C380
038700
038700
038700
070E00
070E00
070E00
000000
000000
000000
000000
000000
000000
ENDCHAR
STARTCHAR cyr-er
ENCODING 210
SWIDTH 517 0
DWIDTH 15 0
BBX 24 29 -1 -6
BITMAP
000000
000000
000000
000000
000000
000000
000000
000000
000000
000000
000000
00FF80
00FFE0
00F1E0
01C1E0
01C0E0
01C0E0
0381C0
0381C0
0383C0
078F00
07FF00
07FC00
0E0000
0E0000
0E0000
1C0000
1C0000
000000
ENDCHAR
STARTCHAR cyr-es
ENCODING 211
SWIDTH 448 0
DWIDTH 13 0
BBX 22 29 -1 -6
BITMAP
000000
000000
000000
000000
000000
000000
000000
000000
000000
000000
000000
001F00
007FC0
00F1E0
01C1C0
038000
038000
070000
070000
038380
078F00
03FE00
00F800
000000
000000
000000
000000
000000
000000
ENDCHAR
STARTCHAR cyr-te
ENCODING 212
SWIDTH 448 0
DWIDTH 13 0
BBX 22 29 -1 -6
BITMAP
000000
000000
000000
000000
000000
000000
000000
000000
000000
000000
000000
03FFE0
03FFE0
001C00
003800
003800
003800
007000
007000
007000
00E000
00E000
00E000
000000
000000
000000
000000
000000
000000
ENDCHAR
STARTCHAR cyr-u
ENCODING 213
SWIDTH 413 0
DWIDTH 12 0
BBX 21 29 -1 -6
BITMAP
000000
000000
000000
000000
000000
000000
000000
000000
000000
000000
000000
0381C0
0381C0
03C3C0
038700
03CF00
01CE00
039C00
03FC00
01F800
03F000
01E000
01E000
038000
078000
070000
7E0000
7C0000
000000
ENDCHAR
STARTCHAR cyr-ef
ENCODING 198
SWIDTH 586 0
DWIDTH 17 0
BBX 26 29 -1 -6
BITMAP
00000000
00000000
00000000
00000000
00000000
00000000
00000000
00000000
00000000
00000000
00038000
003FE000
00FFF800
00F77800
03CE7800
038E3800
038E3800
071C7000
071C7000
079CF000
07BBC000
07FFC000
01FF0000
00700000
00700000
00700000
00E00000
00E00000
00000000
ENDCHAR
STARTCHAR cyr-kha
ENCODING 200
SWIDTH 413 0
DWIDTH 12 0
BBX 21 29 -1 -6
BITMAP
000000
000000
000000
000000
000000
000000
000000
000000
000000
000000
000000
0381C0
03C3C0
01E780
01FE00
00FC00
007800
00F000
01F800
03FC00
0F3C00
1E1E00
1C0E00
000000
000000
000000
000000
000000
000000
ENDCHAR
STARTCHAR cyr-tse
ENCODING 195
SWIDTH 482 0
DWIDTH 14 0
BBX 23 29 -1 -6
BITMAP
000000
000000
000000
000000
000000
000000
000000
000000
000000
000000
000000
00E1C0
00E1C0
00E1C0
01C380
01C380
01C380
038700
038700
038700
070E00
07FF00
07FF00
000E00
000E00
000000
000000
000000
000000
ENDCHAR
STARTCHAR cyr-che
ENCODING 222
SWIDTH 482 0
DWIDTH 14 0
BBX 23 29 -1 -6
BITMAP
000000
000000
000000
000000
000000
000000
000000
000000
000000
000000
000000
00E1C0
00E1C0
00E1C0
01C380
01C380
01FF80
01FF00
000700
000700
000E00
000E00
000E00
000000
000000
000000
000000
000000
000000
ENDCHAR
STARTCHAR cyr-sha
ENCODING 219
SWIDTH 655 0
DWIDTH 19 0
BBX 28 29 -1 -6
BITMAP
00000000
00000000
00000000
00000000
00000000
00000000
00000000
00000000
00000000
00000000
00000000
01C38700
01C38700
01C38700
03870E00
03870E00
03870E00
070E1C00
070E1C00
070E1C00
0E1C3800
0FFFF800
0FFFF800
00000000
00000000
00000000
00000000
00000000
00000000
ENDCHAR
STARTCHAR cyr-shcha
ENCODING 221
SWIDTH 689 0
DWIDTH 20 0
BBX 29 29 -1 -6
BITMAP
00000000
00000000
00000000
00000000
00000000
00000000
00000000
00000000
00000000
00000000
00000000
01C38700
01C38700
01C38700
03870E00
03870E00
03870E00
070E1C00
070E1C00
070E1C00
0E1C3800
0FFFFC00
0FFFFC00
00003800
00003800
00000000
00000000
00000000
00000000
ENDCHAR
STARTCHAR cyr-ier
ENCODING 223
SWIDTH 551 0
DWIDTH 16 0
BBX 25 29 -1 -6
BITMAP
00000000
00000000
00000000
00000000
00000000
00000000
00000000
00000000
00000000
00000000
00000000
01F00000
01F00000
00700000
00E00000
00FFC000
00FFE000
01C1E000
01C0E000
01C0E000
0383C000
03FF8000
03FF0000
00000000
00000000
00000000
00000000
00000000
00000000
ENDCHAR
STARTCHAR cyr-iery
ENCODING 217
SWIDTH 586 0
DWIDTH 17 0
BBX 26 29 -1 -6
BITMAP
00000000
00000000
00000000
00000000
00000000
00000000
00000000
00000000
00000000
00000000
00000000
01C01C00
01C01C00
01C01C00
03803800
03FF3800
03FFB800
0707F000
0703F000
0703F000
0E0FE000
0FFEE000
0FFCE000
00000000
00000000
00000000
00000000
00000000
00000000
ENDCHAR
STARTCHAR cyr-ierik
ENCODING 216
SWIDTH 482 0
DWIDTH 14 0
BBX 23 29 -1 -6
BITMAP
000000
000000
000000
000000
000000
000000
000000
000000
000000
000000
000000
01C000
01C000
01C000
038000
03FF00
03FF80
070780
070380
070380
0E0F00
0FFE00
0FFC00
000000
000000
000000
000000
000000
000000
ENDCHAR
STARTCHAR cyr-e-rev
ENCODING 220
SWIDTH 482 0
DWIDTH 14 0
BBX 23 29 -1 -6
BITMAP
000000
000000
000000
000000
000000
000000
000000
000000
000000
000000
000000
007F00
00FFC0
01E3C0
0003C0
0001C0
003FC0
007F80
000380
000780
0F1E00
07FE00
03F800
000000
000000
000000
000000
000000
000000
ENDCHAR
STARTCHAR cyr-yu
ENCODING 192
SWIDTH 620 0
DWIDTH 18 0
BBX 27 29 -1 -6
BITMAP
00000000
00000000
00000000
00000000
00000000
00000000
00000000
00000000
00000000
00000000
00000000
01C7F000
01DFFC00
01DE3C00
03F83C00
03F01C00
03F01C00
07E03800
07E03800
07F07800
0EF1E000
0EFFE000
0E3F8000
00000000
00000000
00000000
00000000
00000000
00000000
ENDCHAR
STARTCHAR cyr-ya
ENCODING 209
SWIDTH 482 0
DWIDTH 14 0
BBX 23 29 -1 -6
BITMAP
000000
000000
000000
000000
000000
000000
000000
000000
000000
000000
000000
007FE0
00FFE0
01E0E0
0381C0
0381C0
03C1C0
03FF80
01FF80
00F380
03C700
078700
0F0700
000000
000000
000000
000000
000000
000000
ENDCHAR
ENDFONT
